<?xml version="1.0" encoding="utf-8" ?><svg xmlns="http://www.w3.org/2000/svg" xmlns:xlink="http://www.w3.org/1999/xlink" width="1024" height="1024" viewBox="0 0 1024 1024"><path fill="#252324" d="M522.319 353.176C538.451 354.197 552.013 363.35 556.591 379.352C566.65 414.512 537.62 449.421 504.593 458.273C476.697 465.749 454.11 460.59 429.267 447.104C408.857 433.101 398.517 421.732 388.706 398.672C393.789 402.222 400.573 406.552 406.613 408.192C433.439 415.478 462.412 405.616 482.019 386.562C491.131 378.113 497.789 367.097 507.033 358.853C511.336 355.015 516.827 353.85 522.319 353.176Z"/><path fill="#252324" d="M726.738 642.613C734.767 641.953 745.902 642.272 754.143 642.426C754.115 642.556 754.087 642.686 754.06 642.816L753.934 643.47C752.65 649.866 753.006 658.479 752.999 665.211L752.994 694.949L752.977 743.406C752.971 750.078 752.083 769.379 754.214 774.637C752.644 775.684 733.648 775.297 730.89 774.833C733.476 770.095 732.474 751.552 732.446 745.326L732.268 692.125C732.381 685.224 732.444 678.322 732.457 671.42C726.74 680.233 716.017 692.841 709.465 701.423C701.643 711.668 693.226 722.122 685.231 732.28C682.604 728.231 679.577 723.988 676.524 720.243C663.601 704.391 651.899 687.044 638.749 671.425C638.466 676.652 638.713 683.095 638.693 688.463L638.531 721.522C638.47 736.751 638.245 752.46 638.655 767.693C638.732 770.574 639.518 772.605 640.626 775.207C637.247 775.283 618.915 775.754 617.229 774.729C618.905 768.312 618.235 756.084 618.236 748.921L618.244 713.083L618.177 667.858C618.136 660.529 618.38 650.355 617.686 643.371L617.602 642.566C626.391 642.285 635.188 642.297 643.977 642.601C657.936 660.728 671.681 682.499 685.472 700.048C690.393 694.423 697.529 683.196 702.371 676.682C710.593 665.622 719.172 654.088 726.738 642.613Z"/><path fill="#252324" d="M677.652 210.191C693.619 209.715 692.875 227.306 689.453 238.273C686.605 247.401 682.697 255.182 677.062 262.869C653.251 295.531 624.83 324.567 592.685 349.07C585.752 354.43 575.447 363.041 566.88 364.354C558.95 363.709 554.785 358.492 553.403 350.854C551.135 338.328 557.794 327.303 564.536 317.357C590.495 279.059 624.589 246.757 661.569 219.226C666.193 215.784 672.043 211.321 677.652 210.191Z"/><path fill="#252324" d="M500.439 642.225C520.303 642.444 540.143 642.132 560.023 642.39C573.283 642.562 583.297 645.807 592.684 655.603C599.826 663.167 603.715 673.231 603.516 683.632C603.3 691.828 600.376 699.376 595.286 705.767C572.351 734.56 535.7 711.584 521.366 725.952C514.29 733.045 515.717 744.892 515.886 754.039C544.66 753.81 573.434 753.775 602.208 753.935C600.38 762.481 600.232 767.037 602.842 775.344L598.625 775.492C564.578 775.507 528.799 774.481 494.948 775.284C495.051 762.466 494.159 749.168 495.419 736.417C496.251 728.004 499.299 720.132 504.874 713.713C527 688.237 560.954 708.642 576.292 695.492C579.974 692.334 582.859 688.117 583.065 683.15C583.262 678.396 581.65 673.814 578.273 670.42C575.313 667.446 571.574 665.961 567.522 665.174C559.354 663.588 549.943 664.374 541.614 664.339C526.485 664.183 511.354 664.212 496.225 664.426C498.289 655.992 498.833 651.2 496.278 642.807C497.595 642.155 498.855 642.305 500.439 642.225Z"/><path fill="#252324" d="M430.274 286.697C436.508 285.834 443.238 286.969 449.185 287.59C473.913 290.175 483.975 302.998 504.775 314.298C518.633 321.826 528.634 325.77 543.287 331.302L539.201 339.925C523.816 334.607 508.975 327.828 494.881 319.683C476.687 309.382 470.606 300.489 448.869 296.956C441.499 295.734 433.983 295.686 426.599 296.814C403.58 300.382 390.104 314.043 382.505 335.501C379.755 343.266 378.686 349.438 374.173 356.465C367.864 366.291 358.551 369.798 351.832 378.567C347.633 384.046 347.448 392.172 348.609 398.857C351.177 413.636 365.663 420.214 372.654 433.19C376.87 441.016 378.114 447.071 380.479 455.501C385.804 474.472 394.691 490.933 411.384 502.087C426.364 512.096 438.357 513.83 455.205 516.841C469.468 519.39 477.261 522.01 492.427 519.068C508.955 515.861 530.587 505.073 540.907 491.579C546.428 484.36 554.266 472.256 559.522 464.386L560.337 463.175C579.77 434.091 589.876 404.919 582.849 369.522C585.68 367.609 588.481 365.652 591.251 363.65C592.177 367.22 592.702 370.956 593.228 374.48C599.257 414.871 583.744 448.031 560.393 479.773C557.184 484.134 552.198 493.273 549.409 496.595C534.698 514.117 510.473 526.538 487.816 529.357C473.18 531.179 468.753 528.73 455.965 526.749C434.797 523.469 419.227 519.941 401.715 506.504C385.145 493.791 377.111 476.717 371.343 457.083C370.031 452.616 367.044 441.412 364.886 437.861C355.288 422.068 340.744 418.576 339.153 397.411C338.6 390.054 338.439 383.607 341.783 376.295C346.801 365.325 359.723 361.611 366.192 351.451C369.994 345.675 371.421 338.66 373.649 332.156C383.147 304.427 401.493 290.094 430.274 286.697Z"/><path fill="#252324" d="M50.7559 642.236L98.464 642.213C117.89 642.165 136.409 639.629 151.49 654.669C158.097 661.332 161.802 670.337 161.797 679.721C161.793 693.49 155.366 707.287 143.039 713.896C132.824 719.373 122.289 718.47 111.151 718.406L87.4181 718.164C82.0472 718.107 74.0018 717.478 70.1345 721.781C64.9443 727.556 66.239 739.176 66.2897 746.55L66.4837 775.165L60.25 775.201L45.8293 775.189C46.3118 760.275 45.7753 745.23 45.9191 730.126C45.2521 717.414 54.8914 702.111 67.7108 698.643C80.8484 695.09 100.721 697.852 114.748 697.149C119.67 696.903 123.571 697.612 128.713 696.502C145.359 692.908 145.415 668.164 128.834 664.542C120.31 663.145 108.412 663.773 99.4565 663.758C81.4336 663.632 63.4099 663.689 45.3882 663.929C47.759 656.636 47.4425 649.955 45.7544 642.597L50.7559 642.236Z"/><path fill="#252324" d="M911.268 678.216C912.245 678.167 913.223 678.13 914.201 678.106C932.438 677.718 949.833 676.768 963.885 690.563C982.878 709.206 982.815 742.221 964.154 761.165C948.144 777.419 931.324 775.061 910.507 775.12L910.45 755.42C922.541 754.552 936.287 757.99 946.43 750.179C966.958 734.369 960.585 701.533 933.328 698.107C926.17 698.023 918.612 697.619 911.506 698.25C894.869 699.725 896.81 717.075 896.749 728.839L896.484 771.983C896.515 789.672 899.549 805.873 881.974 817.208C876.411 820.797 871.671 821.509 865.173 822.091C867.387 814.179 867.96 811.242 866.994 803.156C880.191 799.184 877.682 786.187 877.514 775.164C877.331 761.476 877.233 747.787 877.221 734.098C877.24 727.11 877.072 714.182 878.426 707.635C879.565 702.098 881.93 696.886 885.346 692.382C891.737 684.107 901.063 679.604 911.268 678.216Z"/><path fill="#252324" d="M178.618 677.945L213.947 678.003C231.489 678.004 246.859 676.563 259.212 691.621C267.89 701.895 267.389 713.104 267.461 725.624C267.554 741.739 267.393 755.178 253.886 766.301C243.1 775.183 231.401 775.662 217.977 775.484C212.29 775.409 206.743 775.62 200.975 774.928C191 773.779 181.912 768.653 175.769 760.711C170.507 753.808 168.873 745.285 170.01 736.733C171.313 726.937 177.235 720.81 184.753 715.19C198.576 706.747 216.977 709.277 233.422 709.433C233.498 716.003 233.458 722.574 233.302 729.142C229.161 729.036 223.81 728.797 219.905 728.969C213.388 729.256 202.96 727.674 197.025 730.508C185.626 735.952 187.48 752.283 200.353 754.582C205.818 755.662 212.59 754.848 217.972 755.142C241.928 757.145 249.482 750.165 247.917 725.518C247.486 718.73 249.351 707.935 242.956 702.637C235.629 696.568 226.322 698.247 217.56 698.033C204.661 697.717 191.459 698.595 178.614 698.162C184.302 691.74 184.786 684.324 178.618 677.945Z"/><path fill="#252324" d="M775.24 677.998C792.979 678.228 810.897 677.705 828.629 678.266C838.57 678.58 848.688 683.346 855.178 690.899C864.137 701.354 863.735 713.272 863.542 726.132C863.313 741.424 864.75 755.411 851.59 766.131C840.139 775.618 828.633 775.601 814.695 775.536C799.037 775.463 785.386 775.889 774.427 762.641C769.057 756.148 767.299 746.902 768.33 738.582C769.541 728.801 774.036 721.863 781.789 715.916C793.07 708.955 799.167 709.46 812.096 709.483L830.958 709.448C830.959 715.99 831.072 722.758 830.715 729.274C826.091 729.15 811.601 729.865 807.528 729.051C787.668 724.259 779.426 751.218 798.213 754.75C804.077 755.853 823.271 755.211 829.598 754.896C847.279 754.016 843.187 734.883 843.982 724.793C845.933 700.026 837.415 697.33 814.466 698.077C810.511 698.152 777.601 698.671 776.071 697.695C781.375 693.05 780.341 682.873 775.24 677.998Z"/><path fill="#252324" d="M624.23 336.361C627.187 334.125 629.326 332.595 631.915 329.934C646.348 367.419 648.819 415.786 632.261 453.044C629.634 459.03 626.515 464.789 622.937 470.26C612.291 486.455 597.681 501.775 586.439 517.7C580.275 526.432 573.982 533.626 565.819 540.639C553.966 550.774 540.445 558.775 525.857 564.288C512.459 569.286 498.283 571.874 483.984 571.931C461.067 572.214 421.649 563.786 399.803 554.769C372.53 543.513 348.476 509.799 336.9 483.218C332.709 473.595 333.416 463.491 333.427 453.032L335.117 451.952C339.928 462.966 343.606 474.092 347.922 485.225C350.46 491.771 355.601 498.34 359.004 504.119C378.691 537.551 407.837 552.524 445.516 557.417C452.821 558.366 461.109 560.674 468.835 561.62C489.005 564.06 509.461 561.12 528.126 553.096C541.128 547.402 553.102 539.601 563.564 530.008C574.518 519.868 584.681 504.085 594.29 492.049C600.482 484.294 609.595 473.508 614.832 465.601C619.222 458.863 622.908 451.692 625.831 444.2C638.007 412.508 636.606 367.807 624.23 336.361Z"/><path fill="#252324" d="M347.783 678.195C357.632 677.711 378.601 677.271 387.315 679.803C401.045 683.792 411.147 696.778 413.048 710.809C413.951 717.479 413.667 723.452 413.651 730.244L413.541 753.837C413.454 762.301 412.356 767.985 416.356 775.375C412.497 775.532 408.314 775.809 404.494 775.239C400.768 774.683 397.963 773.083 396.193 769.678C389.901 757.574 399.28 714.623 390.359 703.598C387.386 699.923 383.398 698.669 378.853 698.242C327.27 696.049 332.631 699.169 332.497 747.409C332.471 756.687 331.058 767.36 335.742 775.478C327.417 775.644 314.393 777.064 313.922 765.047C313.378 751.179 314.032 737.17 313.723 723.274C313.609 718.161 313.541 711.494 314.557 706.522C315.631 701.383 317.874 696.56 321.113 692.428C327.81 683.765 337.089 679.489 347.783 678.195Z"/><path fill="#252324" d="M429.127 642.234C435.98 642.151 442.835 642.184 449.687 642.335C447.327 649.102 448.208 670.038 448.503 678.083L479.939 678.031C475.94 683.276 477.001 688.344 477.737 694.535C478.616 695.716 479.661 696.908 480.615 698.044C469.861 697.951 459.107 698.008 448.355 698.215C448.028 710.109 448.241 722.186 448.201 734.099C448.182 740.092 447.914 747.676 452.691 752.161C456.404 755.648 463.358 755.049 468.125 754.992L477.587 754.732C476.69 758.917 475.42 765.489 476.883 769.472C477.514 771.19 478.342 772.728 479.035 774.818C477.814 775.635 468.315 775.421 466.161 775.47C455.682 775.709 445.793 772.328 438.37 764.637C433.897 760.03 430.813 754.257 429.47 747.978C428.09 741.307 428.706 714.44 428.69 706.203L428.678 656.804C428.664 652.114 428.205 646.953 428.272 642.597L429.127 642.234Z"/><path fill="#252324" d="M661.788 299.875C687.944 338.733 691.786 388.366 684.701 433.513C677.368 480.244 650.193 507.044 620.347 540.881C609.085 553.649 597.954 571.343 582.34 578.931C576.92 578.78 571.326 578.661 565.917 579.066L565.363 577.212C584.956 572.442 601.865 547.928 614.532 533.142L638.081 505.658C644.631 498.032 651.402 490.458 656.794 482.028C678.395 448.258 683.538 391.429 673.932 352.488C671.239 341.432 667.346 330.703 662.321 320.492C660.223 316.209 657.177 311.076 655.357 307.028C657.459 304.615 659.54 302.149 661.788 299.875Z"/><path fill="#252324" d="M333.5 334.548C333.512 329.476 332.949 316.081 334.105 311.692C338.304 295.745 350.84 276.688 361.919 265.565C379.599 247.625 403.729 237.513 428.917 237.489C469.061 237.726 490.906 257.707 523.001 276.095C534.534 282.702 553.635 290.623 566.306 296.146L560.827 303.93C543.735 297.522 527.22 289.666 511.464 280.449C504.392 276.389 497.13 272.033 490.303 267.544C460.831 248.163 426.845 239.649 393.526 254.897C358.519 270.919 347.503 301.097 334.693 334.729L333.5 334.548Z"/><path fill="#252324" d="M384.848 202.137C397.261 201.275 416.986 202.403 429.759 201.913C435.439 201.695 467.964 201.667 472.162 202.803C489.66 207.541 511.943 224.613 528.901 233.146C550.278 243.902 572.054 254.584 593.914 264.123C591.696 266.674 589.672 269.265 586.927 271.225C565.595 262.117 544.624 252.188 524.059 241.461C511.176 234.456 498.508 225.766 486.372 219.332C460.418 205.467 430.411 201.18 401.612 207.222C373.18 213.231 349.38 227.976 333.502 252.475C333.513 247.163 333.492 241.85 333.439 236.537C342.877 221.938 368.236 207.152 384.848 202.137Z"/><path fill="#252324" d="M278.427 678.092C289.439 677.712 300.2 675.436 300.51 690.165C300.611 694.921 300.538 699.729 300.528 704.483L300.448 744.916C300.433 752.788 299.321 768.436 302.951 774.971C297.75 775.753 285.836 776.426 283.428 771.14C280.262 764.191 281.351 749.587 281.394 741.804C281.501 727.858 281.528 713.912 281.473 699.966C281.457 693.857 282.665 682.403 278.427 678.092Z"/><path fill="#252324" d="M444.339 338.651C466.023 335.931 476.572 347.325 494.055 356.147C492.137 358.616 490.121 360.985 488.112 363.379C478.07 359.631 471.062 352.329 459.858 349.413C446.453 345.925 435.281 348.463 424.984 357.684C412.333 369.911 408.573 380.782 407.377 397.678C404.335 395.984 401.312 394.257 398.308 392.496C399.821 366.553 418.379 343.33 444.339 338.651Z"/><path fill="#252324" d="M412.492 449.288C422.77 454.597 431.464 463.463 440.498 468.796C449.828 474.304 473.822 478.448 484.346 475.283C493.125 472.642 503.785 469.878 512.812 467.181C511.293 469.256 510.31 470.251 508.538 472.081C487.528 490.562 464.709 488.296 439.072 478.839C425.545 473.85 417.548 462.502 412.492 449.288Z"/><path fill="#252324" d="M689.191 502.855C689.872 506.262 689.509 518.757 689.452 522.761C687.566 525.086 685.237 527.556 683.181 529.774C668.521 545.588 654.805 561.865 641.118 578.517C637.453 578.63 633.437 578.546 629.743 578.544C629.604 575.072 673.222 526.67 678.354 521.168C683.587 515.556 685.645 509.468 689.191 502.855Z"/><path fill="#252324" d="M540.912 203.785C533.892 201.267 545.942 202.128 547.185 202.153C549.049 202.115 556.55 201.895 557.755 202.352C567.116 205.905 577.574 211.823 586.573 216.251C599.054 222.391 612.948 227.927 624.931 234.617C622.236 237.445 620.59 238.948 617.589 241.462C597.445 232.532 577.614 222.914 558.13 212.623C553.78 210.344 544.317 205.972 540.912 203.785Z"/><path fill="#3B373A" d="M540.912 203.785C533.892 201.267 545.942 202.128 547.185 202.153C544.245 203.018 542.958 201.925 540.912 203.785Z"/><path fill="#252324" d="M333.109 534.867C342.413 548.767 354.701 565.553 369.997 573.146C373.916 575.091 378.334 576.328 382.314 578.174C379.009 578.601 369.976 577.763 368.629 578.826C366.258 578.911 363.859 578.926 361.479 578.981C348.916 572.158 342.723 563.224 333.571 552.666C333.335 546.574 333.251 540.94 333.109 534.867Z"/><path fill="#252324" d="M287.545 641.038C292.807 640.775 298.34 642.264 299.848 647.787C302.062 655.896 300.272 661.511 292.055 663.787C281.187 663.863 275.794 657.498 279.667 646.086C280.68 643.102 284.679 641.809 287.545 641.038Z"/><path fill="#252324" d="M623.541 202.215C632.272 201.949 641.39 202.13 650.175 201.972C653.66 204.059 656.389 205.16 659.974 206.955C658.643 208.062 657.314 209.028 655.969 210.103C654.512 211.242 653.018 212.315 651.513 213.391C646.496 211.351 626.536 204.443 623.541 202.215Z"/><path fill="#252324" d="M681.482 275.473C686.416 267.346 689.289 263.006 689.01 276C688.933 279.566 688.988 283.208 688.996 286.777L687.929 289.271C685.771 284.248 683.499 280.102 681.482 275.473Z"/><path fill="#3B373A" fill-opacity="0.84313726" d="M382.314 578.174C382.763 578.226 383.433 578.247 383.469 578.803C383.06 579.071 370.123 578.883 368.629 578.826C369.976 577.763 379.009 578.601 382.314 578.174Z"/><path fill="#3B373A" fill-opacity="0.98823529" d="M565.363 577.212L565.917 579.066C565.439 579.049 564.961 579.041 564.482 579.041C560.635 579.04 564.197 577.727 565.363 577.212Z"/><path fill="#3B373A" d="M333.427 453.032C333.427 452.711 333.237 449.335 333.788 449.375C334.25 449.727 334.895 451.45 335.117 451.952L333.427 453.032Z"/><path fill="#252324" fill-opacity="0.98431373" d="M687.929 289.271L688.996 286.777C688.998 287.443 689.199 290.314 688.857 290.699L688.781 290.724C688.362 290.465 688.143 289.696 687.929 289.271Z"/><path fill="#3B373A" fill-opacity="0.95294118" d="M333.5 334.548L334.693 334.729C334.535 335.084 334.089 336.373 333.759 336.608L333.68 336.576C333.433 336.052 333.502 335.128 333.5 334.548Z"/></svg>