<?xml version="1.0" standalone="no"?>
<!DOCTYPE svg PUBLIC "-//W3C//DTD SVG 20010904//EN"
 "http://www.w3.org/TR/2001/REC-SVG-20010904/DTD/svg10.dtd">
<svg version="1.0" xmlns="http://www.w3.org/2000/svg"
 width="1024.000000pt" height="1024.000000pt" viewBox="0 0 1024.000000 1024.000000"
 preserveAspectRatio="xMidYMid meet">

<g transform="translate(0.000000,1024.000000) scale(0.100000,-0.100000)"
fill="#000000" stroke="none">
<path d="M824 6431 c-65 -23 -133 -63 -206 -118 -79 -60 -100 -92 -97 -149 l3
-46 30 38 c138 178 346 274 596 274 169 0 288 -35 455 -135 135 -80 264 -149
410 -218 197 -92 191 -91 216 -66 l21 21 -239 117 c-131 65 -282 143 -335 174
-53 32 -125 71 -160 89 l-63 31 -290 4 c-263 3 -295 1 -341 -16z"/>
<path d="M1930 6424 c65 -38 322 -166 408 -203 70 -31 75 -32 93 -15 27 24 24
30 -23 52 -24 12 -118 56 -209 100 -145 69 -174 80 -240 85 l-74 7 45 -26z"/>
<path d="M2481 6436 c2 -2 38 -17 80 -33 l76 -30 27 22 27 21 -26 12 c-23 11
-195 18 -184 8z"/>
<path d="M2725 6349 c-173 -121 -416 -345 -541 -499 -198 -244 -244 -371 -163
-453 37 -36 65 -33 142 16 235 150 610 544 700 734 39 84 45 186 13 222 -31
35 -83 28 -151 -20z"/>
<path d="M1003 6190 c-189 -50 -332 -172 -429 -366 -40 -80 -46 -100 -51 -175
-6 -95 2 -96 37 -4 13 33 46 105 73 160 174 346 547 442 891 232 277 -170 483
-270 515 -250 38 24 23 39 -96 92 -65 28 -193 97 -286 152 -92 55 -195 112
-228 125 -136 55 -296 68 -426 34z"/>
<path d="M2857 5992 c-21 -23 -21 -39 3 -82 l19 -35 1 68 c0 37 -2 67 -3 67
-2 0 -11 -8 -20 -18z"/>
<path d="M1112 5875 c-160 -36 -272 -140 -322 -300 -30 -97 -60 -143 -125
-194 -75 -59 -95 -93 -102 -171 -9 -95 14 -152 101 -248 72 -80 75 -86 111
-200 46 -146 84 -219 150 -285 102 -103 216 -152 439 -187 118 -19 145 -20
204 -10 123 21 262 89 345 169 52 49 219 301 263 396 49 107 75 214 77 320 2
94 -10 205 -21 205 -4 0 -17 -8 -29 -18 -20 -16 -21 -23 -14 -84 15 -139 -13
-285 -82 -423 -46 -93 -191 -306 -244 -358 -62 -62 -184 -123 -288 -144 l-81
-17 -164 32 c-189 36 -259 65 -344 142 -62 57 -124 167 -152 270 -28 103 -59
166 -112 223 -69 74 -90 108 -98 155 -13 80 0 106 95 200 80 79 90 94 111 157
74 228 183 317 387 317 91 -1 161 -21 238 -68 144 -89 232 -136 320 -174 102
-44 124 -48 127 -25 0 8 1 20 2 26 1 6 -24 21 -54 33 -106 44 -206 95 -283
145 -43 28 -99 62 -125 75 -91 45 -232 63 -330 41z"/>
<path d="M8087 5809 c-25 -14 -47 -63 -47 -102 0 -43 30 -82 74 -97 45 -15 81
-4 112 33 23 27 25 38 21 81 -6 65 -39 96 -100 96 -23 0 -50 -5 -60 -11z"/>
<path d="M5151 5800 c-43 -10 -81 -39 -104 -79 -20 -33 -134 -307 -297 -711
-54 -135 -121 -300 -148 -367 l-50 -123 103 0 103 0 127 308 c70 169 159 384
197 477 109 264 108 262 118 244 14 -24 220 -531 220 -540 0 -5 -77 -10 -172
-11 l-172 -3 -39 -88 c-21 -49 -36 -91 -33 -94 2 -3 117 -8 254 -11 l249 -5
58 -138 57 -139 104 0 104 0 -21 53 c-11 28 -83 205 -159 392 -76 187 -175
432 -220 545 -46 113 -91 217 -101 231 -33 47 -115 74 -178 59z"/>
<path d="M2677 5770 c-14 -20 -11 -28 29 -108 126 -251 145 -593 49 -887 -48
-146 -78 -191 -311 -466 -185 -219 -271 -304 -336 -334 l-53 -25 66 0 c57 0
71 4 106 29 22 16 63 55 90 87 28 33 98 113 155 179 209 241 277 339 332 479
79 199 92 531 31 774 -25 97 -109 283 -132 290 -6 1 -18 -6 -26 -18z"/>
<path d="M3180 5788 c0 -2 -1 -288 -3 -636 l-2 -632 105 0 105 0 -3 491 c-2
437 -1 491 12 479 9 -6 54 -62 101 -124 46 -61 138 -181 203 -266 65 -85 122
-155 127 -155 10 0 67 71 302 378 75 97 139 177 142 177 6 0 5 -398 -2 -813
l-2 -167 105 0 105 0 0 635 0 635 -126 0 -126 0 -28 -42 c-29 -43 -351 -486
-364 -501 -4 -4 -95 113 -201 260 -107 148 -199 271 -204 275 -10 7 -246 12
-246 6z"/>
<path d="M5884 5690 l0 -100 381 0 c375 0 381 0 425 -22 64 -33 85 -67 85
-138 0 -63 -16 -95 -69 -134 -26 -20 -45 -21 -309 -27 -201 -4 -292 -9 -317
-19 -60 -23 -109 -61 -140 -108 -54 -81 -60 -121 -60 -384 l0 -238 94 0 95 0
3 228 c4 244 8 266 57 299 23 16 60 19 306 23 264 5 283 6 329 28 112 51 183
145 206 274 13 68 -1 160 -32 221 -27 54 -103 128 -158 155 -78 37 -139 42
-524 42 l-371 0 -1 -100z"/>
<path d="M9456 5287 c1 -489 1 -492 24 -551 29 -76 88 -139 165 -179 56 -29
69 -31 183 -35 l122 -4 -10 28 c-6 16 -10 58 -9 94 l3 65 -105 5 c-181 9 -189
24 -189 340 l0 220 156 0 156 0 -8 28 c-5 15 -8 45 -8 67 0 22 3 52 8 68 l8
27 -157 0 -156 0 3 160 3 160 -95 0 -95 0 1 -493z"/>
<path d="M2482 5577 l-23 -25 20 -65 c44 -145 54 -359 22 -512 -35 -168 -72
-239 -223 -428 -46 -57 -110 -139 -143 -181 -75 -97 -168 -174 -272 -226 -176
-88 -344 -104 -585 -56 -221 43 -312 79 -414 163 -78 63 -95 83 -168 193 -59
88 -81 135 -136 283 -12 31 -26 57 -31 57 -12 0 -12 -64 1 -130 28 -149 199
-394 342 -491 99 -67 271 -121 493 -154 295 -44 562 46 760 256 54 58 98 113
274 343 118 155 170 310 178 531 6 153 -8 263 -49 394 l-23 73 -23 -25z"/>
<path d="M1193 5519 c-108 -42 -214 -174 -230 -286 -5 -38 -3 -48 12 -59 32
-24 42 -16 47 35 10 98 83 202 174 247 90 44 155 31 322 -62 l33 -19 18 25
c19 24 19 25 0 38 -11 8 -59 34 -106 58 -77 39 -94 44 -152 43 -41 0 -86 -8
-118 -20z"/>
<path d="M7107 5438 c10 -30 10 -128 -1 -150 -8 -17 8 -18 251 -18 282 0 308
-4 360 -53 45 -42 57 -109 50 -264 -7 -145 -25 -191 -87 -223 -35 -18 -59 -20
-208 -20 -159 0 -171 1 -203 23 -48 32 -65 83 -48 138 25 75 46 83 237 89
l167 5 0 94 0 94 -162 -1 c-188 0 -242 -12 -318 -70 -69 -53 -107 -125 -113
-217 -9 -148 41 -243 162 -305 l69 -35 211 0 c208 0 212 0 268 27 79 37 140
96 174 171 29 62 29 63 29 262 0 184 -2 204 -23 256 -43 106 -128 179 -241
205 -39 10 -136 14 -319 14 l-263 0 8 -22z"/>
<path d="M8056 5443 c5 -10 11 -207 14 -438 5 -438 7 -452 49 -475 27 -14 124
-23 139 -12 10 6 10 15 2 36 -6 17 -10 175 -10 427 0 491 4 479 -135 479 -61
0 -66 -2 -59 -17z"/>
<path d="M8647 5450 c-100 -25 -197 -104 -239 -195 -22 -48 -23 -61 -26 -360
-3 -300 -2 -312 17 -337 22 -27 85 -48 147 -48 33 0 36 2 30 23 -19 61 -23
174 -17 394 6 222 8 244 27 269 48 65 60 69 241 72 179 4 237 -5 272 -42 41
-43 44 -72 50 -364 l6 -284 32 -28 c23 -21 46 -30 88 -35 68 -9 78 -1 65 45
-6 19 -10 156 -10 305 0 291 -6 338 -54 418 -33 58 -96 114 -165 146 -53 25
-64 26 -241 28 -102 1 -202 -2 -223 -7z"/>
<path d="M1710 5426 c-14 -8 -74 -66 -134 -130 -128 -138 -202 -186 -333 -219
-76 -19 -93 -20 -165 -9 -49 7 -98 21 -126 37 -25 14 -47 23 -50 21 -11 -12
77 -145 132 -200 78 -78 139 -118 240 -157 69 -27 98 -33 191 -37 175 -7 289
31 401 132 171 156 203 396 68 514 -65 58 -166 79 -224 48z"/>
<path d="M1077 4749 c42 -79 99 -122 201 -155 125 -40 225 -39 313 4 70 34
117 67 108 77 -4 3 -47 -5 -97 -20 -180 -50 -301 -28 -453 83 -47 34 -89 62
-93 62 -4 0 5 -23 21 -51z"/>
<path d="M2861 4400 c-13 -25 -74 -101 -136 -170 -61 -69 -140 -159 -174 -200
l-63 -75 39 -3 c35 -3 41 1 78 45 22 26 87 101 145 166 152 171 142 154 138
223 l-3 59 -24 -45z"/>
<path d="M520 4181 c0 -42 6 -56 39 -98 21 -27 60 -68 86 -91 47 -41 49 -42
119 -42 l71 1 -65 33 c-68 35 -163 125 -215 204 -15 23 -29 42 -31 42 -2 0 -4
-22 -4 -49z"/>
</g>
</svg>
