<?xml version="1.0" standalone="no"?>
<!DOCTYPE svg PUBLIC "-//W3C//DTD SVG 20010904//EN"
 "http://www.w3.org/TR/2001/REC-SVG-20010904/DTD/svg10.dtd">
<svg version="1.0" xmlns="http://www.w3.org/2000/svg"
 width="1024.000000pt" height="1024.000000pt" viewBox="0 0 1024.000000 1024.000000"
 preserveAspectRatio="xMidYMid meet">
<metadata>
Created by potrace 1.16, written by Peter Selinger 2001-2019
</metadata>
<g transform="translate(0.000000,1024.000000) scale(0.100000,-0.100000)"
fill="#ffffff" stroke="none">
<path d="M2755 8364 c-108 -38 -319 -145 -440 -224 -142 -93 -252 -185 -326
-273 l-59 -71 0 -140 0 -141 27 40 c47 70 149 188 234 271 257 247 572 404
970 483 349 69 730 44 1079 -71 206 -67 339 -133 700 -350 151 -90 340 -199
420 -240 240 -126 716 -349 933 -438 l58 -24 57 57 c36 36 53 60 47 66 -6 5
-71 36 -145 69 -472 209 -1005 480 -1340 681 -286 172 -449 259 -570 302 l-65
23 -755 3 -755 2 -70 -25z"/>
<path d="M5512 8381 c8 -25 1326 -671 1367 -671 14 0 121 99 121 112 0 9 -206
110 -475 234 -93 42 -255 121 -360 175 -104 54 -224 112 -267 128 -74 30 -82
31 -233 31 -92 0 -155 -4 -153 -9z"/>
<path d="M7025 8368 c50 -26 424 -168 444 -168 16 0 140 91 141 102 0 4 -36
26 -80 48 l-80 40 -232 0 -233 -1 40 -21z"/>
<path d="M7889 8236 c-71 -27 -120 -58 -261 -162 -705 -527 -1271 -1102 -1675
-1702 -144 -214 -194 -337 -195 -476 -1 -124 24 -199 87 -262 91 -92 168 -92
329 0 83 48 110 68 331 240 426 334 839 737 1176 1151 122 149 288 376 326
443 100 179 155 353 157 497 1 98 -13 151 -51 203 -46 62 -153 95 -224 68z"/>
<path d="M3410 7763 c-276 -29 -586 -156 -820 -333 -248 -189 -514 -558 -628
-873 -24 -68 -26 -84 -29 -292 -2 -141 1 -213 7 -200 5 11 48 119 95 240 192
488 352 743 595 947 150 126 305 212 498 277 453 152 969 69 1457 -234 319
-198 558 -337 729 -424 238 -121 569 -263 580 -249 49 62 86 122 80 128 -5 5
-97 46 -204 93 -405 177 -501 228 -957 511 -408 252 -674 360 -986 401 -106
13 -325 18 -417 8z"/>
<path d="M8059 7208 c-37 -50 -59 -86 -59 -98 0 -11 119 -269 120 -260 5 31 5
288 1 330 -7 67 -27 76 -62 28z"/>
<path d="M3549 6905 c-285 -45 -509 -159 -672 -344 -121 -137 -188 -264 -272
-516 -31 -93 -70 -196 -87 -227 -37 -69 -108 -141 -243 -246 -128 -99 -185
-170 -218 -270 -33 -100 -41 -194 -28 -313 22 -196 68 -285 235 -458 125 -129
188 -206 221 -271 14 -27 54 -145 89 -262 95 -314 152 -447 265 -614 121 -182
299 -338 509 -447 178 -92 316 -136 567 -181 77 -14 208 -37 290 -52 290 -52
520 -28 815 87 324 126 595 335 745 575 37 60 112 172 165 249 472 678 621
1209 514 1840 -8 50 -17 96 -19 103 -3 8 -27 -3 -75 -35 -71 -48 -71 -48 -66
-88 25 -191 28 -245 23 -408 -5 -209 -26 -333 -87 -517 -77 -236 -177 -429
-388 -750 -271 -413 -364 -524 -529 -638 -272 -186 -618 -295 -880 -279 -97 7
-520 81 -688 122 -247 59 -451 170 -621 340 -101 100 -168 194 -238 333 -59
118 -87 192 -142 382 -94 325 -118 367 -341 608 -171 186 -207 262 -207 442 0
179 35 241 217 393 212 176 265 253 352 517 61 182 91 251 159 355 171 262
425 399 766 412 155 6 270 -6 397 -43 147 -43 224 -81 409 -202 205 -135 299
-189 509 -294 126 -64 427 -191 501 -212 18 -6 25 3 53 65 18 39 31 73 29 74
-2 2 -77 32 -168 68 -319 127 -475 208 -795 417 -320 209 -430 252 -729 285
-163 18 -221 18 -337 0z"/>
<path d="M7592 6620 l-54 -60 61 -115 c165 -312 261 -596 312 -921 30 -196 38
-626 15 -842 -51 -483 -181 -895 -373 -1187 -79 -120 -137 -191 -452 -558
-146 -172 -334 -393 -416 -492 -295 -356 -467 -507 -652 -575 -35 -12 -63 -24
-63 -26 0 -2 75 -4 168 -4 l167 0 65 42 c89 59 252 224 394 401 65 81 208 250
319 375 435 492 593 704 735 987 163 325 237 614 273 1069 15 191 6 629 -16
786 -47 338 -140 659 -262 905 -43 87 -154 275 -162 275 -3 0 -30 -27 -59 -60z"/>
<path d="M7075 6109 c-83 -67 -79 -58 -52 -130 34 -91 83 -285 106 -419 33
-198 44 -369 38 -595 -13 -443 -100 -774 -291 -1098 -61 -104 -128 -195 -312
-423 -67 -83 -183 -233 -259 -334 -273 -363 -404 -496 -643 -653 -477 -315
-999 -415 -1569 -302 -67 14 -180 34 -250 45 -627 101 -1026 318 -1336 726
-54 72 -264 399 -297 463 -12 24 -66 162 -120 305 -55 144 -112 290 -129 326
l-30 65 -1 -176 c0 -276 23 -367 157 -619 145 -272 309 -497 508 -695 159
-159 273 -244 429 -321 290 -144 919 -292 1371 -324 552 -39 1079 134 1541
504 117 94 285 274 389 417 49 68 143 192 210 274 66 83 169 211 228 285 263
328 406 601 492 940 102 403 102 923 0 1375 -27 119 -115 405 -124 405 -3 -1
-28 -19 -56 -41z"/>
<path d="M3776 5989 c-370 -105 -649 -433 -707 -829 -14 -96 -21 -83 91 -147
l57 -33 7 80 c16 197 92 382 215 526 198 232 416 305 698 233 81 -20 131 -44
293 -139 93 -55 181 -100 195 -100 4 0 95 118 95 123 0 3 -26 19 -58 35 -33
17 -101 57 -153 88 -129 79 -262 141 -355 164 -105 27 -281 27 -378 -1z"/>
<path d="M5100 5731 c-120 -38 -164 -76 -348 -296 -245 -294 -408 -432 -635
-540 -207 -98 -387 -140 -597 -138 -223 2 -370 41 -525 139 -49 30 -90 52 -92
50 -9 -9 115 -243 177 -336 140 -208 402 -436 625 -545 304 -147 508 -198 790
-197 400 0 751 145 1017 420 98 101 174 204 225 307 181 359 141 768 -96 987
-146 136 -380 200 -541 149z"/>
<path d="M3325 4033 c30 -72 95 -185 140 -242 93 -122 199 -190 393 -254 212
-71 320 -90 497 -90 174 0 255 17 393 83 115 55 309 206 290 225 -3 3 -117
-27 -254 -67 l-249 -72 -165 -1 c-135 0 -184 4 -272 23 -220 47 -286 79 -490
234 -136 104 -274 198 -289 198 -5 0 -2 -17 6 -37z"/>
<path d="M8085 3059 c-63 -130 -101 -183 -261 -360 -395 -438 -724 -825 -724
-853 0 -3 45 -6 99 -6 l100 0 182 218 c193 230 305 358 516 590 l130 143 5
102 c3 56 2 135 -1 176 l-6 74 -40 -84z"/>
<path d="M1927 2429 l6 -154 104 -122 c115 -135 198 -215 287 -274 l58 -39
187 0 c197 1 203 3 94 41 -224 77 -444 276 -678 614 -27 39 -52 74 -56 79 -4
5 -5 -61 -2 -145z"/>
</g>
</svg>
