<?xml version="1.0" standalone="no"?>
<!DOCTYPE svg PUBLIC "-//W3C//DTD SVG 20010904//EN"
 "http://www.w3.org/TR/2001/REC-SVG-20010904/DTD/svg10.dtd">
<svg version="1.0" xmlns="http://www.w3.org/2000/svg"
 width="1024.000000pt" height="1024.000000pt" viewBox="0 0 1024.000000 1024.000000"
 preserveAspectRatio="xMidYMid meet">

<g transform="translate(0.000000,1024.000000) scale(0.100000,-0.100000)"
fill="#ffffff" stroke="none">
<path d="M6874 5929 c-70 -20 -107 -116 -70 -186 23 -45 92 -70 146 -54 56 17
80 52 80 117 0 48 -4 59 -32 88 -36 37 -76 48 -124 35z"/>
<path d="M3443 5911 c-18 -5 -44 -16 -57 -24 -60 -39 -61 -42 -363 -787 -52
-129 -135 -333 -184 -453 -49 -120 -89 -220 -89 -223 0 -2 51 -4 114 -4 79 0
117 4 124 13 6 6 24 46 40 87 17 41 56 136 87 210 63 149 175 425 292 713 42
103 79 187 83 187 7 0 37 -68 173 -400 90 -218 98 -239 94 -242 -1 0 -92 -4
-201 -7 l-200 -6 -43 -99 c-24 -55 -43 -103 -43 -107 0 -5 131 -10 292 -11
l292 -3 69 -167 70 -168 113 0 c62 0 115 3 117 8 4 7 -52 151 -228 582 -48
118 -141 348 -206 509 -65 162 -127 306 -137 320 -41 56 -140 89 -209 72z"/>
<path d="M4293 5813 c1 -49 -1 -100 -6 -115 l-7 -28 433 0 c472 0 504 -3 561
-56 94 -89 63 -258 -57 -303 -17 -7 -119 -11 -250 -12 -301 0 -420 -10 -477
-39 -68 -35 -97 -60 -134 -114 -61 -89 -66 -126 -66 -443 l0 -283 109 0 110 0
3 268 c3 296 7 313 71 352 30 19 52 20 308 20 152 0 301 5 330 10 266 50 413
342 295 587 -40 81 -121 163 -198 198 -82 37 -191 45 -625 45 l-402 0 2 -87z"/>
<path d="M1157 5158 l2 -733 118 -3 118 -3 -3 577 c-2 515 -1 576 12 565 9 -7
53 -63 100 -125 91 -120 347 -454 384 -501 12 -15 24 -26 26 -24 2 2 113 146
246 319 134 173 249 322 257 330 12 13 13 -68 11 -563 l-3 -577 124 0 123 0
-7 38 c-9 42 -7 1375 2 1410 l5 22 -153 0 -154 -1 -76 -107 c-158 -223 -372
-512 -379 -512 -7 0 -31 31 -211 279 -57 78 -136 186 -174 240 l-71 96 -149 3
-150 2 2 -732z"/>
<path d="M8427 5338 c2 -365 6 -572 14 -608 31 -153 156 -268 324 -299 61 -11
218 -15 227 -6 3 3 -1 29 -10 57 -11 40 -12 64 -5 105 l10 53 -83 0 c-122 0
-177 14 -213 56 -47 53 -52 89 -49 355 l3 243 172 -3 c95 -1 176 0 182 3 6 4
4 20 -6 43 -10 25 -13 52 -9 83 3 25 7 56 8 70 l3 25 -178 3 -179 2 4 185 3
185 -110 0 -110 0 2 -552z"/>
<path d="M5707 5513 c-3 -5 1 -29 9 -53 15 -43 12 -105 -7 -141 -8 -15 20 -17
299 -21 282 -4 311 -6 352 -25 95 -43 110 -83 110 -297 0 -180 -8 -221 -51
-271 -47 -53 -81 -60 -289 -60 -167 0 -188 2 -219 20 -73 43 -97 112 -63 188
34 77 48 81 272 87 l195 5 3 108 3 107 -184 0 c-193 0 -258 -10 -338 -50 -54
-28 -113 -89 -146 -152 -26 -49 -28 -62 -28 -168 0 -106 2 -119 27 -166 55
-104 165 -174 303 -195 81 -12 284 -11 370 1 176 26 308 141 345 302 5 24 10
131 10 239 0 173 -3 205 -21 265 -39 125 -112 203 -232 250 l-72 28 -321 4
c-187 2 -324 0 -327 -5z"/>
<path d="M6806 5498 c4 -13 10 -239 13 -503 6 -461 7 -481 27 -515 25 -43 76
-62 154 -58 43 2 54 6 51 18 -2 8 -7 31 -12 50 -5 19 -9 239 -9 488 0 497 0
496 -60 527 -18 9 -56 15 -101 15 -70 0 -71 -1 -63 -22z"/>
<path d="M7504 5505 c-161 -35 -272 -141 -308 -295 -20 -83 -22 -654 -3 -709
18 -51 54 -72 130 -78 93 -8 99 -5 80 49 -12 35 -15 100 -14 348 1 170 6 322
12 343 13 49 61 103 107 119 26 9 97 13 232 13 187 0 197 -1 236 -24 24 -13
52 -41 65 -65 24 -40 24 -47 29 -361 5 -284 7 -324 23 -353 24 -44 85 -71 160
-72 56 0 58 1 51 23 -20 63 -24 116 -24 397 0 244 -3 318 -16 365 -41 159
-172 278 -335 304 -89 15 -351 12 -425 -4z"/>
</g>
</svg>
