<?xml version="1.0" standalone="no"?>
<!DOCTYPE svg PUBLIC "-//W3C//DTD SVG 20010904//EN"
 "http://www.w3.org/TR/2001/REC-SVG-20010904/DTD/svg10.dtd">
<svg version="1.0" xmlns="http://www.w3.org/2000/svg"
 width="1024.000000pt" height="1024.000000pt" viewBox="0 0 1024.000000 1024.000000"
 preserveAspectRatio="xMidYMid meet">
<metadata>
Created by potrace 1.16, written by Peter Selinger 2001-2019
</metadata>
<g transform="translate(0.000000,1024.000000) scale(0.100000,-0.100000)"
fill="#ffffff" stroke="none">
<path d="M2944 5955 c-58 -26 -73 -124 -26 -175 52 -59 154 -48 182 20 19 45
3 117 -30 142 -34 25 -88 31 -126 13z"/>
<path d="M837 5953 c-172 -2 -276 -7 -272 -13 8 -13 9 -152 1 -178 l-7 -21
423 -3 c399 -3 426 -4 453 -22 42 -28 62 -55 74 -101 20 -78 -14 -154 -85
-190 -36 -19 -60 -20 -319 -21 -239 0 -288 -3 -334 -18 -68 -22 -142 -94 -179
-174 -27 -57 -27 -59 -30 -319 l-3 -263 106 0 106 0 -2 228 c-5 351 -17 338
332 334 334 -5 408 11 504 103 178 173 140 482 -74 598 -112 62 -172 67 -694
60z"/>
<path d="M4390 5441 c0 -482 1 -512 20 -572 23 -74 60 -126 122 -173 70 -54
128 -71 245 -71 56 0 104 3 107 6 3 3 -1 26 -9 51 -7 26 -12 55 -10 65 2 10 6
33 9 51 l6 32 -100 0 c-54 0 -110 4 -124 10 -65 24 -83 125 -71 396 l7 164
153 0 153 0 -14 38 c-17 47 -17 77 1 126 l14 39 -154 -6 -154 -6 -7 66 c-7 65
2 250 13 278 4 13 -12 15 -101 15 l-106 0 0 -509z"/>
<path d="M5075 5843 l0 -108 340 -1 c234 0 353 -4 382 -12 136 -40 181 -196
81 -289 -53 -50 -89 -57 -298 -59 -209 -1 -249 -8 -333 -57 -59 -35 -124 -108
-153 -172 -31 -66 -44 -177 -44 -372 l0 -143 268 0 c148 0 391 -3 541 -7 l272
-6 -8 29 c-4 16 -7 66 -7 112 l2 82 -430 0 -430 0 4 98 c4 102 18 142 61 183
40 38 68 43 292 49 196 6 226 9 278 29 81 32 168 114 209 199 29 59 33 76 33
147 0 122 -30 191 -119 281 -53 53 -86 77 -131 95 -59 23 -66 24 -435 27
l-375 3 0 -108z"/>
<path d="M6285 5291 l0 -659 67 -7 c37 -4 84 -4 105 -1 l38 7 -2 517 c-3 494
-2 516 15 496 9 -12 64 -84 122 -159 58 -76 139 -181 180 -234 42 -53 91 -118
110 -144 l34 -48 22 23 c20 21 226 284 387 492 l68 90 -3 -517 -3 -517 105 0
105 0 0 660 0 660 -132 0 -132 0 -42 -62 c-24 -35 -90 -128 -149 -208 -59 -80
-125 -172 -148 -205 -74 -108 -70 -104 -93 -75 -10 14 -104 143 -207 288
l-187 262 -130 0 -130 0 0 -659z"/>
<path d="M1900 5593 c0 -5 7 -17 15 -27 19 -26 19 -99 0 -136 l-16 -30 253 0
c264 0 322 -7 371 -42 48 -34 57 -71 59 -235 1 -130 -1 -154 -19 -194 -40 -89
-109 -111 -324 -105 -148 5 -180 14 -218 62 -26 33 -28 95 -4 135 34 57 80 69
261 69 l162 0 0 94 0 93 -109 7 c-150 10 -276 -6 -352 -45 -50 -25 -123 -98
-150 -150 -33 -63 -33 -193 0 -262 32 -65 101 -133 165 -163 134 -61 440 -58
571 6 157 76 215 196 215 445 0 197 -32 297 -120 379 -62 58 -115 83 -206 96
-80 11 -554 14 -554 3z"/>
<path d="M2905 5579 c5 -13 11 -218 14 -456 6 -418 7 -432 27 -460 24 -32 89
-50 147 -39 34 6 35 7 26 39 -5 17 -9 213 -9 435 0 502 3 491 -137 500 l-76 5
8 -24z"/>
<path d="M3532 5585 c-141 -32 -243 -129 -278 -265 -21 -83 -17 -613 5 -647
21 -31 57 -45 133 -51 l67 -5 -15 43 c-12 35 -15 97 -12 334 3 336 5 342 86
379 39 18 71 22 197 25 174 5 240 -6 278 -46 49 -51 51 -69 52 -357 1 -172 5
-279 12 -295 23 -52 55 -71 133 -77 l73 -6 -8 24 c-5 13 -11 166 -15 339 -6
296 -7 318 -29 373 -43 108 -135 197 -237 227 -64 19 -368 22 -442 5z"/>
<path d="M7881 5563 c23 -45 24 -94 4 -133 l-16 -30 245 0 c257 0 328 -8 371
-42 53 -42 59 -68 57 -248 -2 -142 -5 -170 -23 -206 -33 -70 -63 -79 -269 -79
-148 0 -180 3 -207 18 -86 46 -80 171 10 228 28 18 43 20 130 15 54 -3 127 -2
162 1 l65 6 0 94 0 95 -187 -4 c-214 -5 -246 -13 -328 -89 -76 -70 -98 -118
-103 -220 -6 -114 13 -172 76 -237 85 -87 173 -112 392 -112 183 0 285 30 371
107 88 79 114 186 107 433 -4 128 -9 165 -27 212 -29 75 -99 149 -175 184 -78
35 -154 43 -437 44 l-237 0 19 -37z"/>
<path d="M9210 5591 c-135 -19 -254 -109 -302 -229 -22 -56 -23 -66 -28 -492
-5 -401 -6 -438 -23 -464 -10 -15 -31 -35 -47 -44 -25 -14 -28 -23 -33 -86 -4
-39 -9 -81 -13 -93 -5 -19 -3 -23 18 -23 94 0 206 78 255 178 l28 57 5 440 c5
422 6 442 26 480 37 70 67 80 235 80 142 0 147 -1 204 -30 175 -89 205 -330
58 -466 -67 -61 -99 -71 -250 -77 l-133 -5 0 -93 0 -94 139 0 c203 0 294 32
398 142 98 104 138 217 131 372 -7 162 -61 270 -176 358 -85 65 -163 87 -317
93 -66 2 -145 0 -175 -4z"/>
</g>
</svg>
